<svg width="5028" height="2836" xmlns="http://www.w3.org/2000/svg" xmlns:xlink="http://www.w3.org/1999/xlink" xml:space="preserve" overflow="hidden"><defs><filter id="fx0" x="-10%" y="-10%" width="120%" height="120%" filterUnits="userSpaceOnUse" primitiveUnits="userSpaceOnUse"><feComponentTransfer color-interpolation-filters="sRGB"><feFuncR type="discrete" tableValues="0 0"/><feFuncG type="discrete" tableValues="0 0"/><feFuncB type="discrete" tableValues="0 0"/><feFuncA type="linear" slope="0.631373" intercept="0"/></feComponentTransfer><feGaussianBlur stdDeviation="6.875 6.875"/></filter><filter id="fx1" x="-10%" y="-10%" width="120%" height="120%" filterUnits="userSpaceOnUse" primitiveUnits="userSpaceOnUse"><feComponentTransfer color-interpolation-filters="sRGB"><feFuncR type="discrete" tableValues="0 0"/><feFuncG type="discrete" tableValues="0 0"/><feFuncB type="discrete" tableValues="0 0"/><feFuncA type="linear" slope="0.631373" intercept="0"/></feComponentTransfer><feGaussianBlur stdDeviation="6.875 6.875"/></filter><filter id="fx2" x="-10%" y="-10%" width="120%" height="120%" filterUnits="userSpaceOnUse" primitiveUnits="userSpaceOnUse"><feComponentTransfer color-interpolation-filters="sRGB"><feFuncR type="discrete" tableValues="0 0"/><feFuncG type="discrete" tableValues="0 0"/><feFuncB type="discrete" tableValues="0 0"/><feFuncA type="linear" slope="0.631373" intercept="0"/></feComponentTransfer><feGaussianBlur stdDeviation="6.875 6.875"/></filter><filter id="fx3" x="-10%" y="-10%" width="120%" height="120%" filterUnits="userSpaceOnUse" primitiveUnits="userSpaceOnUse"><feComponentTransfer color-interpolation-filters="sRGB"><feFuncR type="discrete" tableValues="0 0"/><feFuncG type="discrete" tableValues="0 0"/><feFuncB type="discrete" tableValues="0 0"/><feFuncA type="linear" slope="0.631373" intercept="0"/></feComponentTransfer><feGaussianBlur stdDeviation="6.875 6.875"/></filter><filter id="fx4" x="-10%" y="-10%" width="120%" height="120%" filterUnits="userSpaceOnUse" primitiveUnits="userSpaceOnUse"><feComponentTransfer color-interpolation-filters="sRGB"><feFuncR type="discrete" tableValues="0 0"/><feFuncG type="discrete" tableValues="0 0"/><feFuncB type="discrete" tableValues="0 0"/><feFuncA type="linear" slope="0.631373" intercept="0"/></feComponentTransfer><feGaussianBlur stdDeviation="6.875 6.875"/></filter><filter id="fx5" x="-10%" y="-10%" width="120%" height="120%" filterUnits="userSpaceOnUse" primitiveUnits="userSpaceOnUse"><feComponentTransfer color-interpolation-filters="sRGB"><feFuncR type="discrete" tableValues="0 0"/><feFuncG type="discrete" tableValues="0 0"/><feFuncB type="discrete" tableValues="0 0"/><feFuncA type="linear" slope="0.631373" intercept="0"/></feComponentTransfer><feGaussianBlur stdDeviation="6.875 6.875"/></filter><filter id="fx6" x="-10%" y="-10%" width="120%" height="120%" filterUnits="userSpaceOnUse" primitiveUnits="userSpaceOnUse"><feComponentTransfer color-interpolation-filters="sRGB"><feFuncR type="discrete" tableValues="0 0"/><feFuncG type="discrete" tableValues="0 0"/><feFuncB type="discrete" tableValues="0 0"/><feFuncA type="linear" slope="0.631373" intercept="0"/></feComponentTransfer><feGaussianBlur stdDeviation="6.875 6.875"/></filter><filter id="fx7" x="-10%" y="-10%" width="120%" height="120%" filterUnits="userSpaceOnUse" primitiveUnits="userSpaceOnUse"><feComponentTransfer color-interpolation-filters="sRGB"><feFuncR type="discrete" tableValues="0 0"/><feFuncG type="discrete" tableValues="0 0"/><feFuncB type="discrete" tableValues="0 0"/><feFuncA type="linear" slope="0.631373" intercept="0"/></feComponentTransfer><feGaussianBlur stdDeviation="6.875 6.875"/></filter><filter id="fx8" x="-10%" y="-10%" width="120%" height="120%" filterUnits="userSpaceOnUse" primitiveUnits="userSpaceOnUse"><feComponentTransfer color-interpolation-filters="sRGB"><feFuncR type="discrete" tableValues="0 0"/><feFuncG type="discrete" tableValues="0 0"/><feFuncB type="discrete" tableValues="0 0"/><feFuncA type="linear" slope="0.631373" intercept="0"/></feComponentTransfer><feGaussianBlur stdDeviation="6.875 6.875"/></filter><filter id="fx9" x="-10%" y="-10%" width="120%" height="120%" filterUnits="userSpaceOnUse" primitiveUnits="userSpaceOnUse"><feComponentTransfer color-interpolation-filters="sRGB"><feFuncR type="discrete" tableValues="0 0"/><feFuncG type="discrete" tableValues="0 0"/><feFuncB type="discrete" tableValues="0 0"/><feFuncA type="linear" slope="0.631373" intercept="0"/></feComponentTransfer><feGaussianBlur stdDeviation="6.875 6.875"/></filter><filter id="fx10" x="-10%" y="-10%" width="120%" height="120%" filterUnits="userSpaceOnUse" primitiveUnits="userSpaceOnUse"><feComponentTransfer color-interpolation-filters="sRGB"><feFuncR type="discrete" tableValues="0 0"/><feFuncG type="discrete" tableValues="0 0"/><feFuncB type="discrete" tableValues="0 0"/><feFuncA type="linear" slope="0.631373" intercept="0"/></feComponentTransfer><feGaussianBlur stdDeviation="6.875 6.875"/></filter><filter id="fx11" x="-10%" y="-10%" width="120%" height="120%" filterUnits="userSpaceOnUse" primitiveUnits="userSpaceOnUse"><feComponentTransfer color-interpolation-filters="sRGB"><feFuncR type="discrete" tableValues="0 0"/><feFuncG type="discrete" tableValues="0 0"/><feFuncB type="discrete" tableValues="0 0"/><feFuncA type="linear" slope="0.631373" intercept="0"/></feComponentTransfer><feGaussianBlur stdDeviation="6.875 6.875"/></filter><filter id="fx12" x="-10%" y="-10%" width="120%" height="120%" filterUnits="userSpaceOnUse" primitiveUnits="userSpaceOnUse"><feComponentTransfer color-interpolation-filters="sRGB"><feFuncR type="discrete" tableValues="0 0"/><feFuncG type="discrete" tableValues="0 0"/><feFuncB type="discrete" tableValues="0 0"/><feFuncA type="linear" slope="0.631373" intercept="0"/></feComponentTransfer><feGaussianBlur stdDeviation="6.875 6.875"/></filter><filter id="fx13" x="-10%" y="-10%" width="120%" height="120%" filterUnits="userSpaceOnUse" primitiveUnits="userSpaceOnUse"><feComponentTransfer color-interpolation-filters="sRGB"><feFuncR type="discrete" tableValues="0 0"/><feFuncG type="discrete" tableValues="0 0"/><feFuncB type="discrete" tableValues="0 0"/><feFuncA type="linear" slope="0.631373" intercept="0"/></feComponentTransfer><feGaussianBlur stdDeviation="6.875 6.875"/></filter><filter id="fx14" x="-10%" y="-10%" width="120%" height="120%" filterUnits="userSpaceOnUse" primitiveUnits="userSpaceOnUse"><feComponentTransfer color-interpolation-filters="sRGB"><feFuncR type="discrete" tableValues="0 0"/><feFuncG type="discrete" tableValues="0 0"/><feFuncB type="discrete" tableValues="0 0"/><feFuncA type="linear" slope="0.631373" intercept="0"/></feComponentTransfer><feGaussianBlur stdDeviation="6.875 6.875"/></filter><filter id="fx15" x="-10%" y="-10%" width="120%" height="120%" filterUnits="userSpaceOnUse" primitiveUnits="userSpaceOnUse"><feComponentTransfer color-interpolation-filters="sRGB"><feFuncR type="discrete" tableValues="0 0"/><feFuncG type="discrete" tableValues="0 0"/><feFuncB type="discrete" tableValues="0 0"/><feFuncA type="linear" slope="0.631373" intercept="0"/></feComponentTransfer><feGaussianBlur stdDeviation="6.875 6.875"/></filter><filter id="fx16" x="-10%" y="-10%" width="120%" height="120%" filterUnits="userSpaceOnUse" primitiveUnits="userSpaceOnUse"><feComponentTransfer color-interpolation-filters="sRGB"><feFuncR type="discrete" tableValues="0 0"/><feFuncG type="discrete" tableValues="0 0"/><feFuncB type="discrete" tableValues="0 0"/><feFuncA type="linear" slope="0.631373" intercept="0"/></feComponentTransfer><feGaussianBlur stdDeviation="6.875 6.875"/></filter><filter id="fx17" x="-10%" y="-10%" width="120%" height="120%" filterUnits="userSpaceOnUse" primitiveUnits="userSpaceOnUse"><feComponentTransfer color-interpolation-filters="sRGB"><feFuncR type="discrete" tableValues="0 0"/><feFuncG type="discrete" tableValues="0 0"/><feFuncB type="discrete" tableValues="0 0"/><feFuncA type="linear" slope="0.631373" intercept="0"/></feComponentTransfer><feGaussianBlur stdDeviation="6.875 6.875"/></filter><filter id="fx18" x="-10%" y="-10%" width="120%" height="120%" filterUnits="userSpaceOnUse" primitiveUnits="userSpaceOnUse"><feComponentTransfer color-interpolation-filters="sRGB"><feFuncR type="discrete" tableValues="0 0"/><feFuncG type="discrete" tableValues="0 0"/><feFuncB type="discrete" tableValues="0 0"/><feFuncA type="linear" slope="0.631373" intercept="0"/></feComponentTransfer><feGaussianBlur stdDeviation="6.875 6.875"/></filter><filter id="fx19" x="-10%" y="-10%" width="120%" height="120%" filterUnits="userSpaceOnUse" primitiveUnits="userSpaceOnUse"><feComponentTransfer color-interpolation-filters="sRGB"><feFuncR type="discrete" tableValues="0 0"/><feFuncG type="discrete" tableValues="0 0"/><feFuncB type="discrete" tableValues="0 0"/><feFuncA type="linear" slope="0.631373" intercept="0"/></feComponentTransfer><feGaussianBlur stdDeviation="6.875 6.875"/></filter><filter id="fx20" x="-10%" y="-10%" width="120%" height="120%" filterUnits="userSpaceOnUse" primitiveUnits="userSpaceOnUse"><feComponentTransfer color-interpolation-filters="sRGB"><feFuncR type="discrete" tableValues="0 0"/><feFuncG type="discrete" tableValues="0 0"/><feFuncB type="discrete" tableValues="0 0"/><feFuncA type="linear" slope="0.631373" intercept="0"/></feComponentTransfer><feGaussianBlur stdDeviation="6.875 6.875"/></filter><filter id="fx21" x="-10%" y="-10%" width="120%" height="120%" filterUnits="userSpaceOnUse" primitiveUnits="userSpaceOnUse"><feComponentTransfer color-interpolation-filters="sRGB"><feFuncR type="discrete" tableValues="0 0"/><feFuncG type="discrete" tableValues="0 0"/><feFuncB type="discrete" tableValues="0 0"/><feFuncA type="linear" slope="0.631373" intercept="0"/></feComponentTransfer><feGaussianBlur stdDeviation="6.875 6.875"/></filter><clipPath id="clip22"><rect x="3182" y="3437" width="5028" height="2836"/></clipPath><clipPath id="clip23"><rect x="3414" y="3709" width="4747" height="1858"/></clipPath><clipPath id="clip24"><rect x="3414" y="3709" width="4747" height="1858"/></clipPath><clipPath id="clip25"><rect x="3414" y="3709" width="4747" height="1858"/></clipPath><clipPath id="clip26"><rect x="3414" y="3709" width="4747" height="1858"/></clipPath><clipPath id="clip27"><rect x="3414" y="3709" width="4747" height="1858"/></clipPath><clipPath id="clip28"><rect x="3414" y="3709" width="4747" height="1858"/></clipPath><clipPath id="clip29"><rect x="3414" y="3709" width="4747" height="1858"/></clipPath><clipPath id="clip30"><rect x="3414" y="3709" width="4747" height="1858"/></clipPath><clipPath id="clip31"><rect x="3414" y="3709" width="4747" height="1858"/></clipPath><clipPath id="clip32"><rect x="3414" y="3709" width="4747" height="1858"/></clipPath><clipPath id="clip33"><rect x="3414" y="3709" width="4747" height="1858"/></clipPath><clipPath id="clip34"><rect x="3414" y="3709" width="4747" height="1858"/></clipPath><clipPath id="clip35"><path d="M3646 5563 3646 5564 3779 5564 3779 5563ZM3182 3437 8210 3437 8210 6273 3182 6273Z" fill-rule="evenodd" clip-rule="evenodd"/></clipPath><clipPath id="clip36"><rect x="3414" y="3709" width="4747" height="1858"/></clipPath><clipPath id="clip37"><rect x="3414" y="3709" width="4747" height="1858"/></clipPath><clipPath id="clip38"><rect x="3414" y="3709" width="4747" height="1858"/></clipPath><clipPath id="clip39"><path d="M4940 5563 4940 5564 5073 5564 5073 5563ZM3182 3437 8210 3437 8210 6273 3182 6273Z" fill-rule="evenodd" clip-rule="evenodd"/></clipPath><clipPath id="clip40"><rect x="3414" y="3709" width="4747" height="1858"/></clipPath><clipPath id="clip41"><path d="M5371 5563 5371 5564 5504 5564 5504 5563ZM3182 3437 8210 3437 8210 6273 3182 6273Z" fill-rule="evenodd" clip-rule="evenodd"/></clipPath><clipPath id="clip42"><rect x="3414" y="3709" width="4747" height="1858"/></clipPath><clipPath id="clip43"><path d="M5802 5563 5802 5564 5935 5564 5935 5563ZM3182 3437 8210 3437 8210 6273 3182 6273Z" fill-rule="evenodd" clip-rule="evenodd"/></clipPath><clipPath id="clip44"><rect x="3414" y="3709" width="4747" height="1858"/></clipPath><clipPath id="clip45"><path d="M6234 5563 6234 5564 6367 5564 6367 5563ZM3182 3437 8210 3437 8210 6273 3182 6273Z" fill-rule="evenodd" clip-rule="evenodd"/></clipPath><clipPath id="clip46"><rect x="3414" y="3709" width="4747" height="1858"/></clipPath><clipPath id="clip47"><path d="M6665 5563 6665 5564 6798 5564 6798 5563ZM3182 3437 8210 3437 8210 6273 3182 6273Z" fill-rule="evenodd" clip-rule="evenodd"/></clipPath><clipPath id="clip48"><rect x="3414" y="3709" width="4747" height="1858"/></clipPath><clipPath id="clip49"><path d="M7096 5563 7096 5564 7229 5564 7229 5563ZM3182 3437 8210 3437 8210 6273 3182 6273Z" fill-rule="evenodd" clip-rule="evenodd"/></clipPath><clipPath id="clip50"><rect x="3414" y="3709" width="4747" height="1858"/></clipPath><clipPath id="clip51"><path d="M7527 5563 7527 5564 7660 5564 7660 5563ZM3182 3437 8210 3437 8210 6273 3182 6273Z" fill-rule="evenodd" clip-rule="evenodd"/></clipPath><clipPath id="clip52"><rect x="3414" y="3709" width="4747" height="1858"/></clipPath><linearGradient x1="3547.5" y1="5249" x2="3547.5" y2="5564" gradientUnits="userSpaceOnUse" spreadMethod="reflect" id="fill53"><stop offset="0" stop-color="#66B352"/><stop offset="0.5" stop-color="#4BAD28"/><stop offset="1" stop-color="#3F9E1D"/></linearGradient><linearGradient x1="3978.5" y1="5342" x2="3978.5" y2="5564" gradientUnits="userSpaceOnUse" spreadMethod="reflect" id="fill54"><stop offset="0" stop-color="#66B352"/><stop offset="0.5" stop-color="#4BAD28"/><stop offset="1" stop-color="#3F9E1D"/></linearGradient><linearGradient x1="4410.5" y1="4971" x2="4410.5" y2="5564" gradientUnits="userSpaceOnUse" spreadMethod="reflect" id="fill55"><stop offset="0" stop-color="#66B352"/><stop offset="0.5" stop-color="#4BAD28"/><stop offset="1" stop-color="#3F9E1D"/></linearGradient><linearGradient x1="4841.5" y1="5379" x2="4841.5" y2="5564" gradientUnits="userSpaceOnUse" spreadMethod="reflect" id="fill56"><stop offset="0" stop-color="#66B352"/><stop offset="0.5" stop-color="#4BAD28"/><stop offset="1" stop-color="#3F9E1D"/></linearGradient><linearGradient x1="5272.5" y1="5008" x2="5272.5" y2="5564" gradientUnits="userSpaceOnUse" spreadMethod="reflect" id="fill57"><stop offset="0" stop-color="#66B352"/><stop offset="0.5" stop-color="#4BAD28"/><stop offset="1" stop-color="#3F9E1D"/></linearGradient><linearGradient x1="5703.5" y1="4859" x2="5703.5" y2="5564" gradientUnits="userSpaceOnUse" spreadMethod="reflect" id="fill58"><stop offset="0" stop-color="#66B352"/><stop offset="0.5" stop-color="#4BAD28"/><stop offset="1" stop-color="#3F9E1D"/></linearGradient><linearGradient x1="6135" y1="5267" x2="6135" y2="5564" gradientUnits="userSpaceOnUse" spreadMethod="reflect" id="fill59"><stop offset="0" stop-color="#66B352"/><stop offset="0.5" stop-color="#4BAD28"/><stop offset="1" stop-color="#3F9E1D"/></linearGradient><linearGradient x1="6566.5" y1="5008" x2="6566.5" y2="5564" gradientUnits="userSpaceOnUse" spreadMethod="reflect" id="fill60"><stop offset="0" stop-color="#66B352"/><stop offset="0.5" stop-color="#4BAD28"/><stop offset="1" stop-color="#3F9E1D"/></linearGradient><linearGradient x1="6997.5" y1="5026" x2="6997.5" y2="5564" gradientUnits="userSpaceOnUse" spreadMethod="reflect" id="fill61"><stop offset="0" stop-color="#66B352"/><stop offset="0.5" stop-color="#4BAD28"/><stop offset="1" stop-color="#3F9E1D"/></linearGradient><linearGradient x1="7428.5" y1="5100" x2="7428.5" y2="5564" gradientUnits="userSpaceOnUse" spreadMethod="reflect" id="fill62"><stop offset="0" stop-color="#66B352"/><stop offset="0.5" stop-color="#4BAD28"/><stop offset="1" stop-color="#3F9E1D"/></linearGradient><linearGradient x1="7859.5" y1="5267" x2="7859.5" y2="5564" gradientUnits="userSpaceOnUse" spreadMethod="reflect" id="fill63"><stop offset="0" stop-color="#66B352"/><stop offset="0.5" stop-color="#4BAD28"/><stop offset="1" stop-color="#3F9E1D"/></linearGradient><linearGradient x1="4143.5" y1="5230" x2="4143.5" y2="5564" gradientUnits="userSpaceOnUse" spreadMethod="reflect" id="fill64"><stop offset="0" stop-color="#A65D48"/><stop offset="0.5" stop-color="#A03D0A"/><stop offset="1" stop-color="#943402"/></linearGradient><linearGradient x1="4575.5" y1="5045" x2="4575.5" y2="5564" gradientUnits="userSpaceOnUse" spreadMethod="reflect" id="fill65"><stop offset="0" stop-color="#A65D48"/><stop offset="0.5" stop-color="#A03D0A"/><stop offset="1" stop-color="#943402"/></linearGradient><linearGradient x1="8025" y1="3876" x2="8025" y2="5564" gradientUnits="userSpaceOnUse" spreadMethod="reflect" id="fill66"><stop offset="0" stop-color="#A65D48"/><stop offset="0.5" stop-color="#A03D0A"/><stop offset="1" stop-color="#943402"/></linearGradient><linearGradient x1="4609" y1="6157" x2="4609" y2="6202" gradientUnits="userSpaceOnUse" spreadMethod="reflect" id="fill67"><stop offset="0" stop-color="#66B352"/><stop offset="0.5" stop-color="#4BAD28"/><stop offset="1" stop-color="#3F9E1D"/></linearGradient><linearGradient x1="5804" y1="6157" x2="5804" y2="6202" gradientUnits="userSpaceOnUse" spreadMethod="reflect" id="fill68"><stop offset="0" stop-color="#A65D48"/><stop offset="0.5" stop-color="#A03D0A"/><stop offset="1" stop-color="#943402"/></linearGradient></defs><g clip-path="url(#clip22)" transform="translate(-3182 -3437)"><rect x="3183" y="3438" width="5025" height="2833" fill="#FFFFFF"/><g><path d="M3414.5 5378.68 8158.5 5378.68M3414.5 5193.67 8158.5 5193.67M3414.5 5007.66 8158.5 5007.66M3414.5 4822.66 8158.5 4822.66M3414.5 4636.65 8158.5 4636.65M3414.5 4451.65 8158.5 4451.65M3414.5 4265.64 8158.5 4265.64M3414.5 4080.63 8158.5 4080.63M3414.5 3894.63 8158.5 3894.63M3414.5 3709.5 8158.5 3709.5" stroke="#D9D9D9" stroke-width="3.4375" stroke-linejoin="round" stroke-miterlimit="10" fill="none"/></g><g clip-path="url(#clip23)"><g filter="url(#fx0)" transform="translate(3459 5234)"><g><rect x="22.0002" y="21.875" width="133" height="315" fill="#FF0000"/></g></g></g><g clip-path="url(#clip24)"><g filter="url(#fx1)" transform="translate(3890 5327)"><g><rect x="21.9998" y="21.875" width="133" height="222" fill="#FF0000"/></g></g></g><g clip-path="url(#clip25)"><g filter="url(#fx2)" transform="translate(4322 4956)"><g><rect x="22" y="21.875" width="133" height="593" fill="#FF0000"/></g></g></g><g clip-path="url(#clip26)"><g filter="url(#fx3)" transform="translate(4753 5364)"><g><rect x="22" y="21.875" width="133" height="185" fill="#FF0000"/></g></g></g><g clip-path="url(#clip27)"><g filter="url(#fx4)" transform="translate(5184 4993)"><g><rect x="22" y="21.875" width="133" height="556" fill="#FF0000"/></g></g></g><g clip-path="url(#clip28)"><g filter="url(#fx5)" transform="translate(5615 4844)"><g><rect x="22" y="21.875" width="133" height="705" fill="#FF0000"/></g></g></g><g clip-path="url(#clip29)"><g filter="url(#fx6)" transform="translate(6046 5252)"><g><rect x="22" y="21.875" width="134" height="297" fill="#FF0000"/></g></g></g><g clip-path="url(#clip30)"><g filter="url(#fx7)" transform="translate(6478 4993)"><g><rect x="22" y="21.875" width="133" height="556" fill="#FF0000"/></g></g></g><g clip-path="url(#clip31)"><g filter="url(#fx8)" transform="translate(6909 5011)"><g><rect x="22" y="21.875" width="133" height="538" fill="#FF0000"/></g></g></g><g clip-path="url(#clip32)"><g filter="url(#fx9)" transform="translate(7340 5085)"><g><rect x="22" y="21.875" width="133" height="464" fill="#FF0000"/></g></g></g><g clip-path="url(#clip33)"><g filter="url(#fx10)" transform="translate(7771 5252)"><g><rect x="22" y="21.875" width="133" height="297" fill="#FF0000"/></g></g></g><g clip-path="url(#clip34)"><g clip-path="url(#clip35)"><g filter="url(#fx11)" transform="translate(3624 5548)"><g><rect x="22.0002" y="21.875" width="133" height="1.00003" fill="#FFFFFF"/></g></g></g></g><g clip-path="url(#clip36)"><g filter="url(#fx12)" transform="translate(4055 5215)"><g><rect x="21.9998" y="21.875" width="133" height="334" fill="#FF0000"/></g></g></g><g clip-path="url(#clip37)"><g filter="url(#fx13)" transform="translate(4487 5030)"><g><rect x="22" y="21.875" width="133" height="519" fill="#FF0000"/></g></g></g><g clip-path="url(#clip38)"><g clip-path="url(#clip39)"><g filter="url(#fx14)" transform="translate(4918 5548)"><g><rect x="22" y="21.875" width="133" height="1.00003" fill="#FFFFFF"/></g></g></g></g><g clip-path="url(#clip40)"><g clip-path="url(#clip41)"><g filter="url(#fx15)" transform="translate(5349 5548)"><g><rect x="22" y="21.875" width="133" height="1.00003" fill="#FFFFFF"/></g></g></g></g><g clip-path="url(#clip42)"><g clip-path="url(#clip43)"><g filter="url(#fx16)" transform="translate(5780 5548)"><g><rect x="22" y="21.875" width="133" height="1.00003" fill="#FFFFFF"/></g></g></g></g><g clip-path="url(#clip44)"><g clip-path="url(#clip45)"><g filter="url(#fx17)" transform="translate(6212 5548)"><g><rect x="22" y="21.875" width="133" height="1.00003" fill="#FFFFFF"/></g></g></g></g><g clip-path="url(#clip46)"><g clip-path="url(#clip47)"><g filter="url(#fx18)" transform="translate(6643 5548)"><g><rect x="22" y="21.875" width="133" height="1.00003" fill="#FFFFFF"/></g></g></g></g><g clip-path="url(#clip48)"><g clip-path="url(#clip49)"><g filter="url(#fx19)" transform="translate(7074 5548)"><g><rect x="22" y="21.875" width="133" height="1.00003" fill="#FFFFFF"/></g></g></g></g><g clip-path="url(#clip50)"><g clip-path="url(#clip51)"><g filter="url(#fx20)" transform="translate(7505 5548)"><g><rect x="22" y="21.875" width="133" height="1.00003" fill="#FFFFFF"/></g></g></g></g><g clip-path="url(#clip52)"><g filter="url(#fx21)" transform="translate(7936 3861)"><g><rect x="22" y="21.8752" width="134" height="1688" fill="#FF0000"/></g></g></g><g><rect x="3481" y="5249" width="133" height="315" fill="url(#fill53)"/></g><g><rect x="3912" y="5342" width="133" height="222" fill="url(#fill54)"/></g><g><rect x="4344" y="4971" width="133" height="593" fill="url(#fill55)"/></g><g><rect x="4775" y="5379" width="133" height="185" fill="url(#fill56)"/></g><g><rect x="5206" y="5008" width="133" height="556" fill="url(#fill57)"/></g><g><rect x="5637" y="4859" width="133" height="705" fill="url(#fill58)"/></g><g><rect x="6068" y="5267" width="134" height="297" fill="url(#fill59)"/></g><g><rect x="6500" y="5008" width="133" height="556" fill="url(#fill60)"/></g><g><rect x="6931" y="5026" width="133" height="538" fill="url(#fill61)"/></g><g><rect x="7362" y="5100" width="133" height="464" fill="url(#fill62)"/></g><g><rect x="7793" y="5267" width="133" height="297" fill="url(#fill63)"/></g><g><rect x="4077" y="5230" width="133" height="334" fill="url(#fill64)"/></g><g><rect x="4509" y="5045" width="133" height="519" fill="url(#fill65)"/></g><g><rect x="7958" y="3876" width="134" height="1688" fill="url(#fill66)"/></g><g><path d="M3414.5 5564.5 8158.5 5564.5" stroke="#D9D9D9" stroke-width="4.58333" stroke-linejoin="round" stroke-miterlimit="10" fill="none" fill-rule="evenodd"/></g><g><text fill="#404040" font-family="Aptos Narrow,Aptos Narrow_MSFontService,sans-serif" font-weight="400" font-stretch="semi-condensed" font-size="83" transform="matrix(1 0 0 1 3505.82 5346)">34</text></g><g><text fill="#404040" font-family="Aptos Narrow,Aptos Narrow_MSFontService,sans-serif" font-weight="400" font-stretch="semi-condensed" font-size="83" transform="matrix(1 0 0 1 3937.05 5439)">24</text></g><g><text fill="#404040" font-family="Aptos Narrow,Aptos Narrow_MSFontService,sans-serif" font-weight="400" font-stretch="semi-condensed" font-size="83" transform="matrix(1 0 0 1 4368.28 5068)">64</text></g><g><text fill="#404040" font-family="Aptos Narrow,Aptos Narrow_MSFontService,sans-serif" font-weight="400" font-stretch="semi-condensed" font-size="83" transform="matrix(1 0 0 1 4799.51 5476)">20</text></g><g><text fill="#404040" font-family="Aptos Narrow,Aptos Narrow_MSFontService,sans-serif" font-weight="400" font-stretch="semi-condensed" font-size="83" transform="matrix(1 0 0 1 5230.74 5105)">60</text></g><g><text fill="#404040" font-family="Aptos Narrow,Aptos Narrow_MSFontService,sans-serif" font-weight="400" font-stretch="semi-condensed" font-size="83" transform="matrix(1 0 0 1 5661.96 4957)">76</text></g><g><text fill="#404040" font-family="Aptos Narrow,Aptos Narrow_MSFontService,sans-serif" font-weight="400" font-stretch="semi-condensed" font-size="83" transform="matrix(1 0 0 1 6093.19 5365)">32</text></g><g><text fill="#404040" font-family="Aptos Narrow,Aptos Narrow_MSFontService,sans-serif" font-weight="400" font-stretch="semi-condensed" font-size="83" transform="matrix(1 0 0 1 6524.42 5105)">60</text></g><g><text fill="#404040" font-family="Aptos Narrow,Aptos Narrow_MSFontService,sans-serif" font-weight="400" font-stretch="semi-condensed" font-size="83" transform="matrix(1 0 0 1 6955.65 5124)">58</text></g><g><text fill="#404040" font-family="Aptos Narrow,Aptos Narrow_MSFontService,sans-serif" font-weight="400" font-stretch="semi-condensed" font-size="83" transform="matrix(1 0 0 1 7386.88 5198)">50</text></g><g><text fill="#404040" font-family="Aptos Narrow,Aptos Narrow_MSFontService,sans-serif" font-weight="400" font-stretch="semi-condensed" font-size="83" transform="matrix(1 0 0 1 7818.11 5365)">32</text></g><g><text fill="#404040" font-family="Aptos Narrow,Aptos Narrow_MSFontService,sans-serif" font-weight="400" font-stretch="semi-condensed" font-size="83" transform="matrix(1 0 0 1 3691.77 5520)">0</text></g><g><text fill="#404040" font-family="Aptos Narrow,Aptos Narrow_MSFontService,sans-serif" font-weight="400" font-stretch="semi-condensed" font-size="83" transform="matrix(1 0 0 1 4102.09 5328)">36</text></g><g><text fill="#404040" font-family="Aptos Narrow,Aptos Narrow_MSFontService,sans-serif" font-weight="400" font-stretch="semi-condensed" font-size="83" transform="matrix(1 0 0 1 4533.32 5142)">56</text></g><g><text fill="#404040" font-family="Aptos Narrow,Aptos Narrow_MSFontService,sans-serif" font-weight="400" font-stretch="semi-condensed" font-size="83" transform="matrix(1 0 0 1 4985.46 5520)">0</text></g><g><text fill="#404040" font-family="Aptos Narrow,Aptos Narrow_MSFontService,sans-serif" font-weight="400" font-stretch="semi-condensed" font-size="83" transform="matrix(1 0 0 1 5416.69 5520)">0</text></g><g><text fill="#404040" font-family="Aptos Narrow,Aptos Narrow_MSFontService,sans-serif" font-weight="400" font-stretch="semi-condensed" font-size="83" transform="matrix(1 0 0 1 5847.91 5520)">0</text></g><g><text fill="#404040" font-family="Aptos Narrow,Aptos Narrow_MSFontService,sans-serif" font-weight="400" font-stretch="semi-condensed" font-size="83" transform="matrix(1 0 0 1 6279.14 5520)">0</text></g><g><text fill="#404040" font-family="Aptos Narrow,Aptos Narrow_MSFontService,sans-serif" font-weight="400" font-stretch="semi-condensed" font-size="83" transform="matrix(1 0 0 1 6710.37 5520)">0</text></g><g><text fill="#404040" font-family="Aptos Narrow,Aptos Narrow_MSFontService,sans-serif" font-weight="400" font-stretch="semi-condensed" font-size="83" transform="matrix(1 0 0 1 7141.6 5520)">0</text></g><g><text fill="#404040" font-family="Aptos Narrow,Aptos Narrow_MSFontService,sans-serif" font-weight="400" font-stretch="semi-condensed" font-size="83" transform="matrix(1 0 0 1 7572.83 5520)">0</text></g><g><text fill="#404040" font-family="Aptos Narrow,Aptos Narrow_MSFontService,sans-serif" font-weight="400" font-stretch="semi-condensed" font-size="83" transform="matrix(1 0 0 1 7962.23 3974)">182</text></g><g><text fill="#595959" font-family="Aptos Narrow,Aptos Narrow_MSFontService,sans-serif" font-weight="400" font-stretch="semi-condensed" font-size="83" transform="matrix(1 0 0 1 3296.56 5586)">0</text></g><g><text fill="#595959" font-family="Aptos Narrow,Aptos Narrow_MSFontService,sans-serif" font-weight="400" font-stretch="semi-condensed" font-size="83" transform="matrix(1 0 0 1 3254.74 5401)">20</text></g><g><text fill="#595959" font-family="Aptos Narrow,Aptos Narrow_MSFontService,sans-serif" font-weight="400" font-stretch="semi-condensed" font-size="83" transform="matrix(1 0 0 1 3254.74 5215)">40</text></g><g><text fill="#595959" font-family="Aptos Narrow,Aptos Narrow_MSFontService,sans-serif" font-weight="400" font-stretch="semi-condensed" font-size="83" transform="matrix(1 0 0 1 3254.74 5030)">60</text></g><g><text fill="#595959" font-family="Aptos Narrow,Aptos Narrow_MSFontService,sans-serif" font-weight="400" font-stretch="semi-condensed" font-size="83" transform="matrix(1 0 0 1 3254.74 4844)">80</text></g><g><text fill="#595959" font-family="Aptos Narrow,Aptos Narrow_MSFontService,sans-serif" font-weight="400" font-stretch="semi-condensed" font-size="83" transform="matrix(1 0 0 1 3212.92 4659)">100</text></g><g><text fill="#595959" font-family="Aptos Narrow,Aptos Narrow_MSFontService,sans-serif" font-weight="400" font-stretch="semi-condensed" font-size="83" transform="matrix(1 0 0 1 3212.92 4473)">120</text></g><g><text fill="#595959" font-family="Aptos Narrow,Aptos Narrow_MSFontService,sans-serif" font-weight="400" font-stretch="semi-condensed" font-size="83" transform="matrix(1 0 0 1 3212.92 4288)">140</text></g><g><text fill="#595959" font-family="Aptos Narrow,Aptos Narrow_MSFontService,sans-serif" font-weight="400" font-stretch="semi-condensed" font-size="83" transform="matrix(1 0 0 1 3212.92 4103)">160</text></g><g><text fill="#595959" font-family="Aptos Narrow,Aptos Narrow_MSFontService,sans-serif" font-weight="400" font-stretch="semi-condensed" font-size="83" transform="matrix(1 0 0 1 3212.92 3917)">180</text></g><g><text fill="#595959" font-family="Aptos Narrow,Aptos Narrow_MSFontService,sans-serif" font-weight="400" font-stretch="semi-condensed" font-size="83" transform="matrix(1 0 0 1 3212.92 3732)">200</text></g><g><text fill="#595959" font-family="Aptos Narrow,Aptos Narrow_MSFontService,sans-serif" font-weight="400" font-stretch="semi-condensed" font-size="83" transform="matrix(0.707107 -0.707107 0.707107 0.707107 3249.81 6069)">WashingMachine</text></g><g><text fill="#595959" font-family="Aptos Narrow,Aptos Narrow_MSFontService,sans-serif" font-weight="400" font-stretch="semi-condensed" font-size="83" transform="matrix(0.707107 -0.707107 0.707107 0.707107 3981.51 5769)">USB</text></g><g><text fill="#595959" font-family="Aptos Narrow,Aptos Narrow_MSFontService,sans-serif" font-weight="400" font-stretch="semi-condensed" font-size="83" transform="matrix(0.707107 -0.707107 0.707107 0.707107 4139.61 6042)">StorageFuniture</text></g><g><text fill="#595959" font-family="Aptos Narrow,Aptos Narrow_MSFontService,sans-serif" font-weight="400" font-stretch="semi-condensed" font-size="83" transform="matrix(0.707107 -0.707107 0.707107 0.707107 4776.19 5837)">Stapler</text></g><g><text fill="#595959" font-family="Aptos Narrow,Aptos Narrow_MSFontService,sans-serif" font-weight="400" font-stretch="semi-condensed" font-size="83" transform="matrix(0.707107 -0.707107 0.707107 0.707107 5177.61 5867)">Scissors</text></g><g><text fill="#595959" font-family="Aptos Narrow,Aptos Narrow_MSFontService,sans-serif" font-weight="400" font-stretch="semi-condensed" font-size="83" transform="matrix(0.707107 -0.707107 0.707107 0.707107 5531.31 5944)">Refrigerator</text></g><g><text fill="#595959" font-family="Aptos Narrow,Aptos Narrow_MSFontService,sans-serif" font-weight="400" font-stretch="semi-condensed" font-size="83" transform="matrix(0.707107 -0.707107 0.707107 0.707107 5986.52 5920)">Microwave</text></g><g><text fill="#595959" font-family="Aptos Narrow,Aptos Narrow_MSFontService,sans-serif" font-weight="400" font-stretch="semi-condensed" font-size="83" transform="matrix(0.707107 -0.707107 0.707107 0.707107 6505.81 5832)">Laptop</text></g><g><text fill="#595959" font-family="Aptos Narrow,Aptos Narrow_MSFontService,sans-serif" font-weight="400" font-stretch="semi-condensed" font-size="83" transform="matrix(0.707107 -0.707107 0.707107 0.707107 6825.32 5944)">Dishwasher</text></g><g><text fill="#595959" font-family="Aptos Narrow,Aptos Narrow_MSFontService,sans-serif" font-weight="400" font-stretch="semi-condensed" font-size="83" transform="matrix(0.707107 -0.707107 0.707107 0.707107 7444.68 5756)">Box</text></g><g><text fill="#595959" font-family="Aptos Narrow,Aptos Narrow_MSFontService,sans-serif" font-weight="400" font-stretch="semi-condensed" font-size="83" transform="matrix(0.707107 -0.707107 0.707107 0.707107 7834.96 5797)">Table</text></g><g><text fill="#595959" font-family="Aptos Narrow,Aptos Narrow_MSFontService,sans-serif" font-weight="700" font-stretch="semi-condensed" font-size="128" transform="matrix(1 0 0 1 4753.1 3593)">Data Distribution on Different Joints</text></g><g><rect x="4586" y="6157" width="46" height="45" fill="url(#fill67)"/></g><g><text fill="#595959" font-family="Aptos Narrow,Aptos Narrow_MSFontService,sans-serif" font-weight="400" font-stretch="semi-condensed" font-size="83" transform="matrix(1 0 0 1 4652.5 6202)">Revolute Test Videos Number</text></g><g><rect x="5781" y="6157" width="46" height="45" fill="url(#fill68)"/></g><g><text fill="#595959" font-family="Aptos Narrow,Aptos Narrow_MSFontService,sans-serif" font-weight="400" font-stretch="semi-condensed" font-size="83" transform="matrix(1 0 0 1 5847.49 6202)">Prismatic Test Videos Number</text></g><rect x="3183.5" y="3438.5" width="5025" height="2833" stroke="#D9D9D9" stroke-width="3.4375" stroke-linejoin="round" stroke-miterlimit="10" fill="none"/></g></svg>